<svg xmlns="http://www.w3.org/2000/svg" xmlns:svg="http://www.w3.org/2000/svg" id="Capa_1" width="512" height="512" x="0" y="0" enable-background="new 0 0 612.001 612.001" version="1.1" viewBox="0 0 612.001 612.001" xml:space="preserve"><metadata id="metadata13"/><g id="g3826" transform="translate(-516.40798,-163.88978)"><circle id="circle3814" cx="822.408" cy="-501.556" r="178.709" stroke-width="1.195" transform="scale(1,-1)"/><g id="g3820" transform="translate(516.40798,163.89028)"><g id="g3818"><path id="path3816" fill="#50fa7b" d="M 64.601,236.822 C 64.601,394.256 192.786,612 306.001,612 412.582,612 547.4,394.256 547.4,236.822 547.4,79.388 439.322,0 306,0 172.678,0 64.601,79.388 64.601,236.822 Z m 304.12,116.415 c 29.475,-29.475 70.598,-40.195 108.552,-32.173 8.021,37.954 -2.698,79.077 -32.173,108.552 -29.475,29.475 -70.598,40.195 -108.552,32.173 -8.022,-37.955 2.698,-79.078 32.173,-108.552 z M 134.727,321.063 c 37.954,-8.021 79.077,2.698 108.552,32.173 29.475,29.475 40.195,70.598 32.173,108.552 -37.954,8.021 -79.077,-2.698 -108.552,-32.173 -29.475,-29.476 -40.194,-70.598 -32.173,-108.552 z" class="active-path" data-old_color="#121212" data-original="#121212"/></g></g></g></svg>